<?xml version="1.0" encoding="UTF-8"?>
<!DOCTYPE svg PUBLIC "-//W3C//DTD SVG 1.1//EN" "http://www.w3.org/Graphics/SVG/1.1/DTD/svg11.dtd">
<!-- Creator: CorelDRAW 2018 (64 Bit Versão de avaliação) -->
<svg xmlns="http://www.w3.org/2000/svg" xml:space="preserve" width="126mm" height="51.365mm" version="1.1" style="shape-rendering:geometricPrecision; text-rendering:geometricPrecision; image-rendering:optimizeQuality; fill-rule:evenodd; clip-rule:evenodd"
viewBox="0 0 12600 5136.5"
 xmlns:xlink="http://www.w3.org/1999/xlink">
 <defs>
  <style type="text/css">
   <![CDATA[
    .fil0 {fill:#DF5D25}
    .fil1 {fill:#FEFEFE;fill-rule:nonzero}
    .fil2 {fill:#DF5D25;fill-rule:nonzero}
   ]]>
  </style>
 </defs>
 <g id="Camada_x0020_1">
  <metadata id="CorelCorpID_0Corel-Layer"/>
  <g id="_1463021073568">
   <path class="fil0" d="M2375.31 4673.18c-69.08,167.08 -181.65,324.8 -344.7,402.92 -187.47,89.83 -407.64,61.54 -612.96,29.09 -440.21,-69.57 -920.75,-174.02 -1191.18,-528.29 -208.93,-273.68 -244.99,-642.47 -219.19,-985.83 39,-519.1 263.1,-997.89 534.13,-1442.34 160.31,-262.86 297.63,-534.66 428.05,-813.57 130.44,-278.89 186.69,-614.68 52.14,-891.59 213.52,127.5 349.05,360.49 403.45,603.17 54.43,242.68 35.78,495.87 -2.14,741.66 -47.21,305.86 -177.77,556.84 -309.68,836.81 -97.62,207.06 -172.24,455.07 -227.4,677.24 -55.16,222.17 -18.71,488.11 162.48,627.99 173.38,133.85 418.87,112.75 631.5,60.18 206.65,-51.06 520.89,-202.44 673.36,-4.49 143.72,186.63 105.55,485.29 22.14,687.05zm-1093.8 -3176.28c-53.59,291 -185.3,561.72 -333.17,817.99 59.97,-72.93 119.97,-145.87 179.94,-218.77 -84.11,146.92 -152.22,302.96 -202.76,464.53 71.85,-106.06 143.7,-212.15 215.58,-318.24 -142.64,275.23 -275.82,555.38 -399.19,839.75 -117.94,271.94 -229.01,560.74 -202.44,855.92 26.57,295.22 233.34,595.08 527.79,629.29 -86.29,-19.76 -165.89,-67.68 -223.68,-134.69 114.01,53.24 242.99,73.96 367.94,59.02 -101.53,-24.91 -201.39,-56.71 -298.61,-95.08 392.92,33.99 788.76,34.52 1181.83,1.61 -185.9,94.8 -385.19,163.29 -590.08,202.79 166.62,10.94 335.48,-13.6 492.12,-71.5 -178.79,89.55 -374.57,145.1 -573.74,162.76 187.57,39.47 382.47,43.71 571.56,12.48 -208.89,52.89 -423,85.13 -638.23,96.14 171.99,36.84 350.38,43.28 524.57,18.99 -218.88,65.54 -450.83,87.24 -678.04,63.37 149.94,67.4 315.82,98.94 480.01,91.3 -171.48,29.51 -346.66,-10.44 -515.09,-54.11 -259.61,-67.33 -526.85,-149.76 -723.27,-332.4 -280.66,-261.01 -360.85,-684.18 -299.1,-1062.49 61.73,-378.31 244.68,-724.34 424.93,-1062.63 109.11,-204.71 218.17,-409.39 327.28,-614.11 97.75,-183.48 196.3,-368.88 251.33,-569.36 26.68,-97.33 42.65,-198.44 42.41,-299.52 -0.18,-67.26 -22.75,-263.92 -55.21,-324.97 175.43,194.94 190.25,597.85 145.32,841.93z"/>
   <path class="fil1" d="M4207.65 3205.18l-241.52 -1337.18 -125.1 0 0 1337.18 -465.86 0 0 -3170.43 465.86 0c552.13,0 793.66,319.2 793.66,914.46 0,314.89 -81.95,599.58 -258.78,720.37l297.6 1535.6 -465.86 0zm6064.67 -3204.94c560.75,-12.97 651.31,487.44 651.31,841.15l-457.18 43.11c0,-211.37 -30.21,-457.23 -185.51,-457.23 -120.76,4.33 -159.58,133.72 -159.58,314.89 0,215.66 185.45,457.22 366.63,720.33 215.69,323.52 435.64,638.41 435.64,979.17 0,422.75 -138,798.04 -647.03,798.04 -599.57,0 -677.18,-452.95 -677.18,-923.09l457.24 -43.16c0,263.11 25.87,539.17 219.94,539.17 138.07,0 189.85,-150.96 189.85,-349.38 0,-211.37 -198.46,-465.86 -375.31,-733.3 -219.99,-323.51 -427.02,-647.02 -427.02,-987.78 0,-345.1 168.21,-733.31 608.2,-741.92zm-918.76 34.48l0 2519.13c0,0 4.35,685.85 -621.15,685.85 -625.45,0 -621.11,-685.85 -621.11,-685.85l0 -2519.13 465.86 0 0 2519.13c0,0 -8.64,232.9 155.25,232.9 163.93,0 155.29,-232.9 155.29,-232.9l0 -2519.13 465.86 0zm-7399.53 2523.09c-69.42,-19.56 -88.26,30.09 -88.26,30.09l-60.71 120.82 0 496.46 573.72 0c556.4,-21.56 720.33,-431.35 720.33,-897.21 0,-629.77 -323.5,-776.43 -323.5,-776.43 224.32,-194.12 289.02,-362.33 289.02,-655.67 0,-629.75 -293.31,-841.12 -849.78,-841.12 -176.83,0 -409.79,0 -409.79,0l0 1582.66c11.49,-1.56 22.46,-2.78 32.26,-3.24 179.98,-8.67 435.23,290.27 608.25,481.25 72.74,80.66 136.46,72.05 174.29,141.89 11.1,20.44 20.1,46.74 27.11,75.82 -27.51,-3.57 -56.31,-4.51 -86.31,0.56 -33.29,5.34 -53.02,40.36 -53.85,95.45 -1.22,47.66 11.93,106.43 52.62,114.25 16.88,3.28 39.03,0.85 64.94,-3.27 12.74,-2.11 25.46,-3.73 38.22,-4.55 -2.88,43.97 -10.7,81.38 -23.01,103.57 -38.64,67.83 -237.16,283.15 -270.84,288.1 -33.34,4.95 -76.47,-17.24 -88.4,-50.53 -11.89,-33.31 2.09,-191.15 24.26,-258.54 -60.43,38.64 -182.05,5.78 -182.05,5.78l-168.52 -46.14zm316.89 -1216.09l0 0 0 -845.43c86.27,0 345.09,-12.94 345.09,422.72 0,435.68 -258.82,422.71 -345.09,422.71zm461.95 1151.26l0 0c-62.46,-21.78 -131.93,9.4 -167.67,2.46 -36.19,-7.4 -43.58,-146.33 0,-153.34 85.05,-13.63 165.22,16.9 227.27,59.59 62.46,43.61 88.79,148.79 88.79,180.03 0,30.86 -86.36,-67.38 -148.39,-88.74zm3812.63 712.2l0 -3170.43c0,0 232.9,0 409.78,0 556.42,0 849.72,211.37 849.72,841.12 0,293.33 -64.69,461.55 -288.96,655.67 0,0 323.5,146.66 323.5,776.43 0,465.86 -163.93,875.65 -720.38,897.21l-573.66 0zm465.85 -2708.88l0 0 0 845.42c86.27,0 345.04,12.97 345.04,-422.72 0,-435.65 -258.77,-422.7 -345.04,-422.7zm0 1272.48l0 0 0 974.85c86.27,0 345.04,34.52 345.04,-487.44 0,-521.93 -258.77,-487.41 -345.04,-487.41zm-2208.46 1436.4l478.77 -3170.43 569.42 0 478.75 3170.43 -452.89 0 -86.27 -647.02 -448.62 0 -86.26 647.02 -452.9 0zm789.36 -2139.52l0 0 -12.95 -81.93 -25.86 0 -12.97 81.93 -133.71 1000.74 319.22 0 -133.73 -1000.74zm-1751.22 -569.36l0 0 0 940.34c129.38,0 345.04,-17.27 345.04,-470.18 0,-452.92 -215.66,-470.16 -345.04,-470.16z"/>
   <path class="fil2" d="M3691.24 3774.04l0 -222.67 -659.19 0 0 1569.7 246.92 0 0 -679.02 354.95 0 0 -222.67 -354.95 0 0 -445.34 412.27 0zm859.81 1347.03l0 -222.67 -412.27 0 0 -456.35 354.95 0 0 -222.67 -354.95 0 0 -445.34 412.27 0 0 -222.67 -659.19 0 0 1569.7 659.19 0zm972.24 -434.31c0,-264.56 -50.7,-363.76 -238.1,-440.93l-185.19 -74.96c-110.23,-44.09 -130.07,-83.77 -130.07,-211.64 0,-68.34 13.22,-121.26 41.89,-154.32 24.25,-26.46 55.11,-44.1 105.82,-44.1 52.91,0 88.19,17.64 110.23,46.3 33.06,41.89 37.48,97 37.48,167.55l246.92 0c0,-149.91 -28.66,-262.35 -110.23,-341.71 -63.94,-61.74 -156.53,-94.8 -282.2,-94.8 -112.44,0 -200.62,35.27 -268.96,94.8 -85.99,77.16 -127.87,191.8 -127.87,332.9 0,242.51 59.53,328.49 218.26,394.62l187.39 77.17c121.26,48.5 147.71,90.39 147.71,257.94 0,83.77 -8.82,136.68 -41.88,174.17 -24.25,28.65 -61.74,44.09 -119.05,44.09 -55.12,0 -92.6,-17.65 -114.65,-41.89 -35.27,-39.69 -44.09,-92.6 -44.09,-176.37l-246.92 0c0,165.34 26.46,262.35 101.41,337.31 66.15,66.14 167.55,103.61 304.25,103.61 138.89,0 242.5,-41.89 306.44,-103.61 79.36,-77.17 101.41,-185.19 101.41,-346.13zm901.69 -912.72l0 -222.67 -773.82 0 0 222.67 262.35 0 0 1347.03 246.92 0 0 -1347.03 264.55 0zm425.5 1347.03l0 -1569.7 -246.93 0 0 1569.7 246.93 0zm1086.88 -1569.7l-271.18 0 -202.82 1190.5 -200.62 -1190.5 -271.17 0 343.92 1569.7 255.73 0 346.14 -1569.7zm954.6 1569.7l-381.41 -1569.7 -240.3 0 -385.81 1569.7 260.15 0 61.73 -310.85 363.76 0 63.94 310.85 257.94 0zm-368.17 -533.51l-268.97 0 134.48 -656.99 134.49 656.99zm1172.86 533.51l0 -222.67 -412.27 0 0 -1347.03 -246.93 0 0 1569.7 659.2 0z"/>
   <path class="fil2" d="M11168.57 5125.5c325.04,-41.46 652.29,-194.2 903.83,-404.15 385.43,-321.63 563.02,-851.53 521.77,-1351.84 -41.22,-500.32 -281.41,-969.54 -607.4,-1351.32 -197.95,-231.88 -430.35,-439.26 -578.78,-705.55 -148.39,-266.34 -194.94,-620.29 -12.26,-864.4 -413.23,327.14 -500.04,1046.33 -323.85,1443.98 139.66,315.34 249.26,534.28 399.05,844.95 149.8,310.63 196.35,721.82 -43.48,969.65 -267.64,276.56 -720.38,200.99 -1092.36,299.69 101.47,42.31 185.86,53.24 287.33,95.51 37.67,15.74 75.98,31.61 116.57,36.24 60,6.91 119.65,-11.22 178.43,-25.27 182.74,-43.68 374.32,-49.53 552.18,-110.12 177.88,-60.57 349.06,-196.03 374.14,-382.24 -94.48,129.12 -230.82,227.07 -383.35,275.45 166.79,-67.19 298.47,-215.98 344.9,-389.71 -70.48,118.78 -182.2,212.54 -311.4,261.32 227.68,-143.24 310.96,-446.76 269.77,-712.59 -41.18,-265.81 -182.78,-503.86 -321.96,-734.03 -139.16,-230.16 -281.6,-467.47 -324.82,-732.96 -35.44,-217.79 -0.8,-443.64 78.83,-649.4 98.62,640.99 722.44,1070.23 956.92,1674.92 116.22,299.79 129.43,641.65 19.2,943.71 -110.26,302.04 -346.94,559.36 -645.83,677.9 218.31,-39.37 422.26,-154.35 568.91,-320.8 -153.45,195.71 -358.27,350.76 -588.26,445.36 204.16,-35.79 398.68,-125.2 558.78,-256.84 -134.52,198.27 -332.22,352.97 -557.02,435.87 222.62,-48.58 433.08,-151.98 607.63,-298.48 -205.64,242.26 -487.07,419.18 -794.51,499.44 81.8,-34.98 157.79,-83.48 223.92,-143 -74.76,21.42 -149.48,42.87 -224.24,64.32 66.77,-29.8 125.01,-78.44 166.23,-138.83 -86.28,25.66 -172.58,51.35 -258.86,77.03 -5.39,191.76 -69.5,381.47 -181.55,537.19 27.55,-22.85 86.08,-6.44 121.54,-11z"/>
  </g>
 </g>
</svg>
